<svg width="435" height="399" viewBox="0 0 435 399" fill="none" xmlns="http://www.w3.org/2000/svg">
<g opacity="0.25">
<path d="M291.538 112.856C374.723 112.856 435 180.721 435 256.031C435 280.084 427.984 304.854 415.671 327.476C413.381 331.198 413.094 335.923 414.669 340.361L424.262 372.433C426.409 380.164 419.823 385.891 412.521 383.6L383.6 375.01C375.725 372.433 369.569 375.726 362.253 380.164C341.349 392.477 315.305 398.777 291.825 398.777C220.81 398.777 148.649 343.941 148.649 255.602C148.649 179.432 210.215 112.856 291.538 112.856Z" fill="url(#paint0_linear_161_1254)"/>
<g opacity="0.5" filter="url(#filter0_f_161_1254)">
<path d="M382.962 257.458C382.962 308.537 341.565 349.926 290.495 349.926C239.425 349.926 198.028 308.537 198.028 257.458C198.028 206.398 239.425 164.991 290.495 164.991C341.565 164.991 382.962 206.398 382.962 257.458Z" fill="#3B37FF"/>
</g>
<g filter="url(#filter1_b_161_1254)">
<mask id="path-3-outside-1_161_1254" maskUnits="userSpaceOnUse" x="0" y="0" width="368" height="367" fill="black">
<rect fill="white" width="368" height="367"/>
<path d="M184.063 1C77.9157 1 1 87.5986 1 183.698C1 214.391 9.95218 245.997 25.6642 274.864C28.5873 279.614 28.9527 285.643 26.943 291.306L14.7023 332.231C11.9619 342.096 20.3659 349.404 29.6835 346.481L66.5884 335.519C76.6368 332.231 84.4928 336.433 93.8286 342.096C120.502 357.808 153.735 365.847 183.698 365.847C274.315 365.847 366.395 295.874 366.395 183.149C366.395 85.9543 287.835 1 184.063 1Z"/>
</mask>
<path d="M184.063 1C77.9157 1 1 87.5986 1 183.698C1 214.391 9.95218 245.997 25.6642 274.864C28.5873 279.614 28.9527 285.643 26.943 291.306L14.7023 332.231C11.9619 342.096 20.3659 349.404 29.6835 346.481L66.5884 335.519C76.6368 332.231 84.4928 336.433 93.8286 342.096C120.502 357.808 153.735 365.847 183.698 365.847C274.315 365.847 366.395 295.874 366.395 183.149C366.395 85.9543 287.835 1 184.063 1Z" fill="#90A2FF" fill-opacity="0.35"/>
<path d="M184.063 2C184.615 2 185.063 1.55228 185.063 1C185.063 0.447715 184.615 0 184.063 0V2ZM25.6642 274.864L24.7858 275.342C24.7943 275.357 24.8032 275.373 24.8125 275.388L25.6642 274.864ZM26.943 291.306L26.0006 290.972C25.995 290.988 25.9898 291.004 25.985 291.02L26.943 291.306ZM14.7023 332.231L13.7443 331.944C13.7424 331.95 13.7406 331.957 13.7388 331.963L14.7023 332.231ZM29.6835 346.481L29.3988 345.522C29.3939 345.524 29.389 345.525 29.3842 345.527L29.6835 346.481ZM66.5884 335.519L66.8731 336.478C66.8819 336.475 66.8907 336.472 66.8994 336.47L66.5884 335.519ZM93.8286 342.096L93.3099 342.951L93.3211 342.958L93.8286 342.096ZM184.063 0C183.511 0 183.063 0.447715 183.063 1C183.063 1.55228 183.511 2 184.063 2V0ZM184.063 0C77.3305 0 0 87.0798 0 183.698H2C2 88.1174 78.5008 2 184.063 2V0ZM0 183.698C0 214.582 9.00629 246.351 24.7858 275.342L26.5425 274.385C10.8981 245.643 2 214.2 2 183.698H0ZM24.8125 275.388C27.5529 279.841 27.9256 285.547 26.0006 290.972L27.8855 291.641C29.9798 285.738 29.6217 279.387 26.5158 274.339L24.8125 275.388ZM25.985 291.02L13.7443 331.944L15.6604 332.517L27.9011 291.593L25.985 291.02ZM13.7388 331.963C12.2738 337.237 13.7791 341.924 16.9933 344.887C20.1964 347.84 25.005 348.997 29.9828 347.435L29.3842 345.527C25.0445 346.888 20.9923 345.853 18.349 343.416C15.7169 340.99 14.3903 337.09 15.6658 332.498L13.7388 331.963ZM29.9682 347.44L66.8731 336.478L66.3037 334.561L29.3988 345.522L29.9682 347.44ZM66.8994 336.47C76.467 333.338 83.9488 337.272 93.3099 342.951L94.3473 341.241C85.0367 335.593 76.8065 331.123 66.2774 334.569L66.8994 336.47ZM93.3211 342.958C120.164 358.77 153.576 366.847 183.698 366.847V364.847C153.895 364.847 120.841 356.847 94.3361 341.235L93.3211 342.958ZM183.698 366.847C274.787 366.847 367.395 296.503 367.395 183.149H365.395C365.395 295.244 273.844 364.847 183.698 364.847V366.847ZM367.395 183.149C367.395 85.4244 288.409 0 184.063 0V2C287.261 2 365.395 86.4843 365.395 183.149H367.395Z" fill="url(#paint1_linear_161_1254)" mask="url(#path-3-outside-1_161_1254)"/>
</g>
<g filter="url(#filter2_bd_161_1254)">
<mask id="path-5-inside-2_161_1254" fill="white">
<path fill-rule="evenodd" clip-rule="evenodd" d="M183.34 207.263C170.369 207.081 159.955 196.667 159.955 183.695C159.955 170.907 170.551 160.31 183.34 160.493C196.312 160.493 206.725 170.907 206.725 183.878C206.725 196.667 196.312 207.263 183.34 207.263ZM99.11 207.262C86.3212 207.262 75.7247 196.665 75.7247 183.876C75.7247 170.905 86.1385 160.491 99.11 160.491C112.082 160.491 122.495 170.905 122.495 183.876C122.495 196.665 112.082 207.079 99.11 207.262ZM244.176 183.878C244.176 196.667 254.589 207.263 267.561 207.263C280.532 207.263 290.946 196.667 290.946 183.878C290.946 170.907 280.532 160.493 267.561 160.493C254.589 160.493 244.176 170.907 244.176 183.878Z"/>
</mask>
<path fill-rule="evenodd" clip-rule="evenodd" d="M183.34 207.263C170.369 207.081 159.955 196.667 159.955 183.695C159.955 170.907 170.551 160.31 183.34 160.493C196.312 160.493 206.725 170.907 206.725 183.878C206.725 196.667 196.312 207.263 183.34 207.263ZM99.11 207.262C86.3212 207.262 75.7247 196.665 75.7247 183.876C75.7247 170.905 86.1385 160.491 99.11 160.491C112.082 160.491 122.495 170.905 122.495 183.876C122.495 196.665 112.082 207.079 99.11 207.262ZM244.176 183.878C244.176 196.667 254.589 207.263 267.561 207.263C280.532 207.263 290.946 196.667 290.946 183.878C290.946 170.907 280.532 160.493 267.561 160.493C254.589 160.493 244.176 170.907 244.176 183.878Z" fill="url(#paint2_linear_161_1254)"/>
<path d="M183.34 207.263L183.335 207.663H183.34V207.263ZM183.34 160.493L183.334 160.893H183.34V160.493ZM99.11 207.262V207.662L99.1156 207.662L99.11 207.262ZM159.555 183.695C159.555 196.889 170.148 207.478 183.335 207.663L183.346 206.863C170.59 206.684 160.355 196.445 160.355 183.695H159.555ZM183.346 160.093C170.331 159.907 159.555 170.687 159.555 183.695H160.355C160.355 171.126 170.772 160.713 183.334 160.893L183.346 160.093ZM207.125 183.878C207.125 170.686 196.533 160.093 183.34 160.093V160.893C196.091 160.893 206.325 171.127 206.325 183.878H207.125ZM183.34 207.663C196.535 207.663 207.125 196.886 207.125 183.878H206.325C206.325 196.448 196.089 206.863 183.34 206.863V207.663ZM75.3247 183.876C75.3247 196.886 86.1003 207.662 99.11 207.662V206.862C86.5421 206.862 76.1247 196.444 76.1247 183.876H75.3247ZM99.11 160.091C85.9176 160.091 75.3247 170.684 75.3247 183.876H76.1247C76.1247 171.126 86.3594 160.891 99.11 160.891V160.091ZM122.895 183.876C122.895 170.684 112.302 160.091 99.11 160.091V160.891C111.861 160.891 122.095 171.126 122.095 183.876H122.895ZM99.1156 207.662C112.301 207.476 122.895 196.889 122.895 183.876H122.095C122.095 196.441 111.862 206.682 99.1044 206.862L99.1156 207.662ZM267.561 206.863C254.812 206.863 244.576 196.448 244.576 183.878H243.776C243.776 196.886 254.366 207.663 267.561 207.663V206.863ZM290.546 183.878C290.546 196.448 280.31 206.863 267.561 206.863V207.663C280.755 207.663 291.346 196.886 291.346 183.878H290.546ZM267.561 160.893C280.312 160.893 290.546 171.128 290.546 183.878H291.346C291.346 170.686 280.753 160.093 267.561 160.093V160.893ZM244.576 183.878C244.576 171.128 254.81 160.893 267.561 160.893V160.093C254.369 160.093 243.776 170.686 243.776 183.878H244.576Z" fill="url(#paint3_linear_161_1254)" mask="url(#path-5-inside-2_161_1254)"/>
</g>
</g>
<defs>
<filter id="filter0_f_161_1254" x="181.028" y="147.991" width="218.935" height="218.935" filterUnits="userSpaceOnUse" color-interpolation-filters="sRGB">
<feFlood flood-opacity="0" result="BackgroundImageFix"/>
<feBlend mode="normal" in="SourceGraphic" in2="BackgroundImageFix" result="shape"/>
<feGaussianBlur stdDeviation="8.5" result="effect1_foregroundBlur_161_1254"/>
</filter>
<filter id="filter1_b_161_1254" x="-24" y="-24" width="415.395" height="414.847" filterUnits="userSpaceOnUse" color-interpolation-filters="sRGB">
<feFlood flood-opacity="0" result="BackgroundImageFix"/>
<feGaussianBlur in="BackgroundImageFix" stdDeviation="12"/>
<feComposite in2="SourceAlpha" operator="in" result="effect1_backgroundBlur_161_1254"/>
<feBlend mode="normal" in="SourceGraphic" in2="effect1_backgroundBlur_161_1254" result="shape"/>
</filter>
<filter id="filter2_bd_161_1254" x="60.7247" y="145.49" width="245.222" height="76.7729" filterUnits="userSpaceOnUse" color-interpolation-filters="sRGB">
<feFlood flood-opacity="0" result="BackgroundImageFix"/>
<feGaussianBlur in="BackgroundImageFix" stdDeviation="7.5"/>
<feComposite in2="SourceAlpha" operator="in" result="effect1_backgroundBlur_161_1254"/>
<feColorMatrix in="SourceAlpha" type="matrix" values="0 0 0 0 0 0 0 0 0 0 0 0 0 0 0 0 0 0 127 0" result="hardAlpha"/>
<feOffset dx="5" dy="5"/>
<feGaussianBlur stdDeviation="5"/>
<feColorMatrix type="matrix" values="0 0 0 0 0.577356 0 0 0 0 0.359375 0 0 0 0 0.9375 0 0 0 0.5 0"/>
<feBlend mode="normal" in2="effect1_backgroundBlur_161_1254" result="effect2_dropShadow_161_1254"/>
<feBlend mode="normal" in="SourceGraphic" in2="effect2_dropShadow_161_1254" result="shape"/>
</filter>
<linearGradient id="paint0_linear_161_1254" x1="291.825" y1="112.856" x2="291.825" y2="398.777" gradientUnits="userSpaceOnUse">
<stop stop-color="#949FFF"/>
<stop offset="1" stop-color="#6691FF"/>
</linearGradient>
<linearGradient id="paint1_linear_161_1254" x1="59.1649" y1="43.5051" x2="291.825" y2="332.093" gradientUnits="userSpaceOnUse">
<stop stop-color="white" stop-opacity="0.25"/>
<stop offset="1" stop-color="white" stop-opacity="0"/>
</linearGradient>
<linearGradient id="paint2_linear_161_1254" x1="275.687" y1="168.937" x2="40.9788" y2="204.149" gradientUnits="userSpaceOnUse">
<stop stop-color="white"/>
<stop offset="1" stop-color="white" stop-opacity="0.2"/>
</linearGradient>
<linearGradient id="paint3_linear_161_1254" x1="109.984" y1="165.94" x2="120.376" y2="225.159" gradientUnits="userSpaceOnUse">
<stop stop-color="white" stop-opacity="0.25"/>
<stop offset="1" stop-color="white" stop-opacity="0"/>
</linearGradient>
</defs>
</svg>
