<svg width="392" height="56" viewBox="0 0 392 56" fill="none" xmlns="http://www.w3.org/2000/svg">
<path d="M17.7597 52.607C14.5334 52.607 11.6276 52.0325 9.04216 50.8834C6.47884 49.7122 4.44586 47.9886 2.94322 45.7126C1.46268 43.4365 0.722412 40.6301 0.722412 37.2934C0.722412 34.4207 1.25275 32.0452 2.31344 30.1669C3.37412 28.2886 4.82152 26.786 6.65562 25.659C8.48972 24.532 10.5558 23.6813 12.854 23.1067C15.1742 22.5101 17.5718 22.0792 20.0468 21.814C23.0299 21.5047 25.4496 21.2284 27.3058 20.9854C29.162 20.7202 30.51 20.3224 31.3497 19.7921C32.2115 19.2396 32.6424 18.3889 32.6424 17.2398V17.0409C32.6424 14.5439 31.9021 12.6104 30.4216 11.2403C28.941 9.87027 26.8086 9.18524 24.0243 9.18524C21.0853 9.18524 18.754 9.82607 17.0304 11.1077C15.3289 12.3894 14.1798 13.9031 13.5832 15.6488L2.37973 14.0578C3.26364 10.9641 4.72208 8.37868 6.75505 6.30151C8.78803 4.20223 11.274 2.6333 14.213 1.59472C17.152 0.534034 20.4003 0.00369263 23.958 0.00369263C26.4109 0.00369263 28.8526 0.290961 31.2834 0.865497C33.7141 1.44003 35.9349 2.39023 37.9458 3.71609C39.9567 5.01984 41.5698 6.7987 42.7852 9.05266C44.0226 11.3066 44.6414 14.1241 44.6414 17.505V51.5795H33.1064V44.5856H32.7087C31.9795 45.9998 30.9519 47.3257 29.6261 48.5632C28.3223 49.7785 26.676 50.7619 24.6873 51.5132C22.7206 52.2424 20.4114 52.607 17.7597 52.607ZM20.8754 43.7901C23.2841 43.7901 25.3723 43.315 27.1401 42.3648C28.9079 41.3925 30.2669 40.1108 31.2171 38.5198C32.1894 36.9288 32.6755 35.1941 32.6755 33.3158V27.3163C32.2999 27.6257 31.659 27.913 30.753 28.1781C29.8691 28.4433 28.8747 28.6753 27.7699 28.8742C26.665 29.0731 25.5712 29.2499 24.4884 29.4045C23.4056 29.5592 22.4664 29.6918 21.6709 29.8023C19.881 30.0454 18.2789 30.4431 16.8647 30.9956C15.4505 31.548 14.3345 32.3214 13.5169 33.3158C12.6993 34.2881 12.2905 35.5477 12.2905 37.0945C12.2905 39.3043 13.0971 40.9726 14.7102 42.0996C16.3233 43.2266 18.3784 43.7901 20.8754 43.7901Z" fill="#2E2E2E"/>
<path d="M68.6473 52.5739C63.5649 52.5739 59.2006 51.4579 55.5545 49.2261C51.9305 46.9942 49.1351 43.9116 47.1685 39.9782C45.2239 36.0228 44.2516 31.4707 44.2516 26.3219C44.2516 21.1511 45.246 16.5879 47.2348 12.6325C49.2235 8.6549 52.0299 5.56124 55.6539 3.35148C59.3 1.11962 63.6091 0.00369263 68.581 0.00369263C72.7133 0.00369263 76.3704 0.766059 79.5525 2.29079C82.7566 3.79343 85.3089 5.92585 87.2093 8.68805C89.1097 11.4281 90.1925 14.6323 90.4576 18.3005H78.989C78.5249 15.8477 77.4201 13.8036 75.6743 12.1684C73.9507 10.5111 71.6415 9.68244 68.7468 9.68244C66.2939 9.68244 64.1394 10.3454 62.2832 11.6712C60.427 12.975 58.9796 14.8533 57.941 17.3061C56.9245 19.7589 56.4163 22.6979 56.4163 26.1231C56.4163 29.5924 56.9245 32.5756 57.941 35.0726C58.9575 37.5475 60.3828 39.459 62.2169 40.8069C64.0731 42.1328 66.2497 42.7957 68.7468 42.7957C70.5146 42.7957 72.0945 42.4642 73.4867 41.8013C74.9009 41.1163 76.0832 40.1329 77.0334 38.8513C77.9836 37.5696 78.6354 36.0117 78.989 34.1776H90.4576C90.1704 37.7795 89.1097 40.9726 87.2756 43.7569C85.4415 46.5191 82.9445 48.6847 79.7845 50.2536C76.6245 51.8005 72.9122 52.5739 68.6473 52.5739Z" fill="#2E2E2E"/>
<path d="M112.583 52.5739C107.478 52.5739 103.07 51.5132 99.3571 49.3918C95.6668 47.2484 92.8273 44.221 90.8385 40.3097C88.8497 36.3763 87.8553 31.7469 87.8553 26.4214C87.8553 21.1842 88.8497 16.5879 90.8385 12.6325C92.8494 8.6549 95.6558 5.56124 99.2577 3.35148C102.86 1.11962 107.091 0.00369263 111.953 0.00369263C115.091 0.00369263 118.052 0.511936 120.836 1.52842C123.642 2.52282 126.117 4.06965 128.261 6.16892C130.426 8.26819 132.128 10.942 133.365 14.1903C134.603 17.4166 135.222 21.2616 135.222 25.7253V29.4045H93.4902V21.3168H123.72C123.698 19.0187 123.2 16.9746 122.228 15.1847C121.256 13.3727 119.897 11.9474 118.151 10.9089C116.428 9.87027 114.417 9.35098 112.118 9.35098C109.666 9.35098 107.511 9.94761 105.655 11.1409C103.799 12.3121 102.351 13.8589 101.313 15.7814C100.296 17.6818 99.777 19.77 99.7549 22.046V29.1062C99.7549 32.0673 100.296 34.6085 101.379 36.7299C102.462 38.8292 103.976 40.4423 105.92 41.5693C107.865 42.6742 110.141 43.2266 112.748 43.2266C114.494 43.2266 116.074 42.9835 117.488 42.4974C118.902 41.9891 120.129 41.2489 121.167 40.2766C122.206 39.3043 122.99 38.0999 123.521 36.6636L134.724 37.9232C134.017 40.8842 132.669 43.4697 130.68 45.6794C128.714 47.8671 126.195 49.5686 123.123 50.784C120.052 51.9772 116.538 52.5739 112.583 52.5739Z" fill="#2E2E2E"/>
<path d="M160.1 24.7414L154.241 25.3806C154.075 24.7888 153.785 24.2324 153.371 23.7116C152.968 23.1908 152.424 22.7706 151.737 22.451C151.05 22.1313 150.21 21.9715 149.216 21.9715C147.878 21.9715 146.754 22.2616 145.842 22.8416C144.943 23.4216 144.499 24.1733 144.51 25.0965C144.499 25.8896 144.789 26.5348 145.381 27.0319C145.984 27.5291 146.979 27.9375 148.363 28.2571L153.015 29.2514C155.596 29.8077 157.514 30.6896 158.768 31.897C160.035 33.1044 160.674 34.6846 160.686 36.6377C160.674 38.3541 160.171 39.8693 159.177 41.1832C158.194 42.4853 156.827 43.5033 155.075 44.2372C153.323 44.9711 151.311 45.338 149.038 45.338C145.7 45.338 143.013 44.6396 140.977 43.2429C138.941 41.8342 137.728 39.8752 137.337 37.3657L143.605 36.762C143.889 37.9931 144.493 38.9223 145.416 39.5497C146.339 40.177 147.541 40.4907 149.02 40.4907C150.547 40.4907 151.773 40.177 152.696 39.5497C153.631 38.9223 154.099 38.147 154.099 37.2237C154.099 36.4424 153.797 35.7973 153.193 35.2883C152.601 34.7793 151.678 34.3887 150.423 34.1164L145.771 33.1399C143.155 32.5954 141.22 31.678 139.965 30.3877C138.71 29.0857 138.089 27.4403 138.101 25.4517C138.089 23.7708 138.545 22.3148 139.468 21.0838C140.403 19.8409 141.699 18.8821 143.356 18.2073C145.025 17.5208 146.949 17.1775 149.127 17.1775C152.323 17.1775 154.838 17.8582 156.673 19.2194C158.52 20.5807 159.662 22.4214 160.1 24.7414Z" fill="#ED6832"/>
<path d="M178.369 33.3352V17.5326H184.796V44.8054H178.564V39.9581H178.28C177.664 41.485 176.652 42.7339 175.244 43.7045C173.847 44.6751 172.125 45.1605 170.077 45.1605C168.289 45.1605 166.709 44.7639 165.336 43.9708C163.975 43.1659 162.91 42 162.14 40.473C161.371 38.9341 160.986 37.0757 160.986 34.8977V17.5326H167.414V33.9034C167.414 35.6316 167.887 37.0047 168.834 38.0227C169.781 39.0407 171.024 39.5497 172.563 39.5497C173.51 39.5497 174.427 39.3189 175.315 38.8572C176.203 38.3956 176.931 37.709 177.499 36.7975C178.079 35.8743 178.369 34.7201 178.369 33.3352Z" fill="#ED6832"/>
<path d="M186.406 55.0326V17.5326H192.727V22.0426H193.1C193.431 21.3797 193.899 20.6754 194.503 19.9296C195.106 19.1721 195.923 18.5269 196.953 17.9943C197.983 17.4498 199.297 17.1775 200.895 17.1775C203.002 17.1775 204.901 17.7161 206.594 18.7933C208.299 19.8586 209.648 21.4389 210.642 23.534C211.649 25.6174 212.152 28.1742 212.152 31.2045C212.152 34.1993 211.66 36.7443 210.678 38.8394C209.695 40.9346 208.358 42.5326 206.665 43.6335C204.972 44.7343 203.055 45.2848 200.912 45.2848C199.35 45.2848 198.054 45.0243 197.024 44.5035C195.994 43.9827 195.165 43.3553 194.538 42.6214C193.922 41.8757 193.443 41.1714 193.1 40.5085H192.833V55.0326H186.406ZM192.709 31.169C192.709 32.9327 192.958 34.4775 193.455 35.8032C193.964 37.129 194.692 38.1647 195.639 38.9105C196.598 39.6444 197.758 40.0113 199.119 40.0113C200.539 40.0113 201.729 39.6325 202.688 38.875C203.647 38.1055 204.369 37.058 204.854 35.7322C205.351 34.3946 205.6 32.8735 205.6 31.169C205.6 29.4763 205.357 27.973 204.872 26.659C204.386 25.3451 203.664 24.3153 202.706 23.5696C201.747 22.8238 200.551 22.451 199.119 22.451C197.746 22.451 196.58 22.812 195.621 23.534C194.662 24.2561 193.934 25.2682 193.437 26.5703C192.952 27.8724 192.709 29.4053 192.709 31.169Z" fill="#ED6832"/>
<path d="M224.73 45.338C221.995 45.338 219.634 44.7698 217.645 43.6335C215.668 42.4853 214.147 40.8636 213.082 38.7684C212.017 36.6614 211.484 34.1815 211.484 31.3288C211.484 28.5234 212.017 26.0613 213.082 23.9424C214.159 21.8117 215.663 20.1546 217.592 18.9708C219.521 17.7753 221.788 17.1775 224.392 17.1775C226.073 17.1775 227.659 17.4498 229.151 17.9943C230.654 18.5269 231.98 19.3555 233.128 20.4801C234.288 21.6046 235.2 23.0369 235.863 24.7769C236.525 26.5052 236.857 28.5648 236.857 30.9559V32.9268H214.503V28.5944H230.696C230.684 27.3634 230.417 26.2684 229.897 25.3096C229.376 24.339 228.648 23.5755 227.713 23.0191C226.789 22.4628 225.712 22.1846 224.481 22.1846C223.167 22.1846 222.013 22.5042 221.019 23.1434C220.025 23.7708 219.249 24.5994 218.693 25.6292C218.148 26.6472 217.87 27.7658 217.858 28.985V32.767C217.858 34.3532 218.148 35.7144 218.728 36.8508C219.308 37.9753 220.119 38.8394 221.161 39.4431C222.203 40.035 223.422 40.3309 224.819 40.3309C225.754 40.3309 226.6 40.2007 227.358 39.9403C228.115 39.668 228.772 39.2715 229.328 38.7507C229.885 38.2298 230.305 37.5847 230.589 36.8153L236.591 37.49C236.212 39.0762 235.49 40.4611 234.424 41.6448C233.371 42.8167 232.021 43.7282 230.376 44.3792C228.731 45.0184 226.849 45.338 224.73 45.338Z" fill="#ED6832"/>
<path d="M237.295 44.8054V17.5326H243.527V22.0781H243.811C244.308 20.5037 245.16 19.2904 246.368 18.4382C247.587 17.5741 248.978 17.142 250.54 17.142C250.895 17.142 251.292 17.1598 251.73 17.1953C252.18 17.2189 252.553 17.2604 252.849 17.3196V23.2322C252.576 23.1375 252.144 23.0546 251.552 22.9836C250.972 22.9008 250.41 22.8593 249.866 22.8593C248.694 22.8593 247.64 23.1138 246.705 23.6228C245.782 24.12 245.054 24.8125 244.521 25.7002C243.988 26.588 243.722 27.6119 243.722 28.772V44.8054H237.295Z" fill="#ED6832"/>
<path d="M252.119 44.8054V17.5326H258.262V22.1669H258.582C259.15 20.6044 260.091 19.3851 261.405 18.5092C262.719 17.6214 264.287 17.1775 266.11 17.1775C267.957 17.1775 269.513 17.6273 270.78 18.5269C272.058 19.4147 272.958 20.628 273.479 22.1669H273.763C274.367 20.6517 275.385 19.4443 276.817 18.5447C278.261 17.6332 279.972 17.1775 281.948 17.1775C284.458 17.1775 286.506 17.9706 288.092 19.5568C289.678 21.143 290.471 23.4571 290.471 26.4992V44.8054H284.026V27.4936C284.026 25.8009 283.576 24.5639 282.676 23.7826C281.777 22.9895 280.676 22.593 279.374 22.593C277.823 22.593 276.61 23.0783 275.734 24.049C274.87 25.0078 274.438 26.2566 274.438 27.7954V44.8054H268.134V27.2272C268.134 25.8186 267.708 24.6941 266.856 23.8537C266.016 23.0132 264.915 22.593 263.553 22.593C262.63 22.593 261.79 22.8297 261.032 23.3032C260.275 23.7649 259.671 24.4218 259.221 25.2741C258.771 26.1145 258.546 27.097 258.546 28.2215V44.8054H252.119Z" fill="#ED6832"/>
<path d="M299.84 45.3558C298.112 45.3558 296.555 45.048 295.17 44.4325C293.797 43.8051 292.708 42.8818 291.903 41.6626C291.11 40.4434 290.713 38.9401 290.713 37.1527C290.713 35.6138 290.998 34.3413 291.566 33.3352C292.134 32.329 292.909 31.5241 293.892 30.9204C294.874 30.3167 295.981 29.861 297.212 29.5532C298.455 29.2336 299.739 29.0028 301.065 28.8608C302.663 28.695 303.959 28.5471 304.953 28.4169C305.948 28.2748 306.67 28.0617 307.12 27.7777C307.581 27.4817 307.812 27.026 307.812 26.4105V26.3039C307.812 24.9663 307.416 23.9306 306.623 23.1967C305.829 22.4628 304.687 22.0958 303.196 22.0958C301.621 22.0958 300.373 22.4391 299.449 23.1257C298.538 23.8122 297.922 24.6231 297.603 25.5582L291.601 24.7059C292.075 23.0487 292.856 21.6638 293.945 20.5511C295.034 19.4266 296.366 18.5861 297.94 18.0298C299.514 17.4616 301.254 17.1775 303.16 17.1775C304.474 17.1775 305.782 17.3314 307.084 17.6392C308.386 17.9469 309.576 18.4559 310.653 19.1662C311.73 19.8645 312.594 20.8174 313.245 22.0248C313.908 23.2322 314.24 24.7414 314.24 26.5525V44.8054H308.061V41.0589H307.848C307.457 41.8165 306.907 42.5267 306.196 43.1896C305.498 43.8406 304.616 44.3674 303.551 44.7698C302.497 45.1605 301.26 45.3558 299.84 45.3558ZM301.509 40.6328C302.799 40.6328 303.918 40.3783 304.865 39.8693C305.812 39.3484 306.54 38.6619 307.049 37.8096C307.569 36.9573 307.83 36.0281 307.83 35.022V31.8082C307.629 31.9739 307.285 32.1278 306.8 32.2698C306.327 32.4119 305.794 32.5362 305.202 32.6427C304.61 32.7492 304.024 32.8439 303.444 32.9268C302.864 33.0097 302.361 33.0807 301.935 33.1399C300.976 33.2701 300.118 33.4832 299.36 33.7791C298.603 34.075 298.005 34.4893 297.567 35.022C297.129 35.5428 296.91 36.2175 296.91 37.0461C296.91 38.2298 297.342 39.1235 298.206 39.7272C299.07 40.3309 300.171 40.6328 301.509 40.6328Z" fill="#ED6832"/>
<path d="M315.703 44.8054V17.5326H321.935V22.0781H322.219C322.716 20.5037 323.569 19.2904 324.776 18.4382C325.995 17.5741 327.386 17.142 328.949 17.142C329.304 17.142 329.7 17.1598 330.138 17.1953C330.588 17.2189 330.961 17.2604 331.257 17.3196V23.2322C330.984 23.1375 330.552 23.0546 329.961 22.9836C329.381 22.9008 328.818 22.8593 328.274 22.8593C327.102 22.8593 326.048 23.1138 325.113 23.6228C324.19 24.12 323.462 24.8125 322.929 25.7002C322.397 26.588 322.13 27.6119 322.13 28.772V44.8054H315.703Z" fill="#ED6832"/>
<path d="M336.386 36.2471L336.369 28.4879H337.398L347.2 17.5326H354.71L342.654 30.9559H341.322L336.386 36.2471ZM330.527 44.8054V8.44172H336.955V44.8054H330.527ZM347.643 44.8054L338.766 32.3941L343.098 27.8664L355.332 44.8054H347.643Z" fill="#ED6832"/>
<path d="M364.945 45.338C362.21 45.338 359.849 44.7698 357.86 43.6335C355.883 42.4853 354.362 40.8636 353.297 38.7684C352.232 36.6614 351.699 34.1815 351.699 31.3288C351.699 28.5234 352.232 26.0613 353.297 23.9424C354.374 21.8117 355.877 20.1546 357.807 18.9708C359.736 17.7753 362.003 17.1775 364.607 17.1775C366.288 17.1775 367.874 17.4498 369.366 17.9943C370.869 18.5269 372.195 19.3555 373.343 20.4801C374.503 21.6046 375.415 23.0369 376.077 24.7769C376.74 26.5052 377.072 28.5648 377.072 30.9559V32.9268H354.717V28.5944H370.911C370.899 27.3634 370.632 26.2684 370.112 25.3096C369.591 24.339 368.863 23.5755 367.928 23.0191C367.004 22.4628 365.927 22.1846 364.696 22.1846C363.382 22.1846 362.228 22.5042 361.234 23.1434C360.239 23.7708 359.464 24.5994 358.908 25.6292C358.363 26.6472 358.085 27.7658 358.073 28.985V32.767C358.073 34.3532 358.363 35.7144 358.943 36.8508C359.523 37.9753 360.334 38.8394 361.376 39.4431C362.417 40.035 363.637 40.3309 365.033 40.3309C365.969 40.3309 366.815 40.2007 367.572 39.9403C368.33 39.668 368.987 39.2715 369.543 38.7507C370.1 38.2298 370.52 37.5847 370.804 36.8153L376.805 37.49C376.427 39.0762 375.705 40.4611 374.639 41.6448C373.586 42.8167 372.236 43.7282 370.591 44.3792C368.946 45.0184 367.063 45.338 364.945 45.338Z" fill="#ED6832"/>
<path d="M391.128 17.5326V22.5042H375.45V17.5326H391.128ZM379.32 10.9985H385.748V36.6022C385.748 37.4663 385.878 38.1292 386.139 38.5909C386.411 39.0407 386.766 39.3484 387.204 39.5142C387.642 39.6799 388.127 39.7627 388.66 39.7627C389.062 39.7627 389.429 39.7332 389.761 39.674C390.104 39.6148 390.365 39.5615 390.542 39.5142L391.625 44.539C391.282 44.6574 390.791 44.7876 390.151 44.9296C389.524 45.0717 388.755 45.1546 387.843 45.1782C386.233 45.2256 384.783 44.9829 383.493 44.4502C382.203 43.9057 381.179 43.0653 380.421 41.9289C379.676 40.7926 379.309 39.3721 379.32 37.6676V10.9985Z" fill="#ED6832"/>
</svg>
